PathFileType	4	(X/Y/Z)	/Users/itak/Documents/Research/Walk-IL/dataset/trc/00134_00007.trc
DataRate	CameraRate	NumFrames	NumMarkers	Units	OrigDataRate	OrigDataStartFrame	OrigNumFrames
100.000000	100.000000	4	53	mm	100.000000	556	742
Frame#	Time	RPSI			LPSI			L3			STRN			T10			C7			CLAV			RBAK			LBAK			LSHO			LUPA			LAEL			LAOL			LWTS			LWPS			LFRA			LIFD			LHPS			LHTS			RSHO			RUPA			RAEL			RAOL			RWTS			RWPS			RFRA			RIFD			RHTS			RHPS			RBHD			LFHD			RFHD			LBHD			LHIP			RHIP			RASI			LASI			LKNE			LTHI			LANK			LTIP			LTOE			LMT1			LMT5			LHEE			RKNE			RTHI			RANK			RTIP			RTOE			RMT1			RMT5			RHEE			
		X1	Y1	Z1	X2	Y2	Z2	X3	Y3	Z3	X4	Y4	Z4	X5	Y5	Z5	X6	Y6	Z6	X7	Y7	Z7	X8	Y8	Z8	X9	Y9	Z9	X10	Y10	Z10	X11	Y11	Z11	X12	Y12	Z12	X13	Y13	Z13	X14	Y14	Z14	X15	Y15	Z15	X16	Y16	Z16	X17	Y17	Z17	X18	Y18	Z18	X19	Y19	Z19	X20	Y20	Z20	X21	Y21	Z21	X22	Y22	Z22	X23	Y23	Z23	X24	Y24	Z24	X25	Y25	Z25	X26	Y26	Z26	X27	Y27	Z27	X28	Y28	Z28	X29	Y29	Z29	X30	Y30	Z30	X31	Y31	Z31	X32	Y32	Z32	X33	Y33	Z33	X34	Y34	Z34	X35	Y35	Z35	X36	Y36	Z36	X37	Y37	Z37	X38	Y38	Z38	X39	Y39	Z39	X40	Y40	Z40	X41	Y41	Z41	X42	Y42	Z42	X43	Y43	Z43	X44	Y44	Z44	X45	Y45	Z45	X46	Y46	Z46	X47	Y47	Z47	X48	Y48	Z48	X49	Y49	Z49	X50	Y50	Z50	X51	Y51	Z51	X52	Y52	Z52	X53	Y53	Z53	

557	5.56	899.1902465820312	1106.206909179688	257.7277221679688	1033.325439453125	1110.081298828125	274.77392578125	968.2775268554688	1142.867065429688	258.0411376953125	939.5409545898438	1348.54931640625	472.5661010742188	970.21728515625	1294.425537109375	221.3320159912109	978.8169555664062	1587.547607421875	251.5788421630859	948.664794921875	1482.347778320312	434.364013671875	897.091552734375	1401.702392578125	192.5592346191406	1079.535522460938	1567.528686523438	257.2496643066406	1138.565673828125	1556.073852539062	350.4693603515625	1211.41845703125	1424.988159179688	332.7600402832031	1230.396484375	1205.208251953125	333.3899536132812	1173.81787109375	1196.639038085938	266.336181640625	1190.24853515625	938.805908203125	411.9913635253906	1216.752807617188	920.8157958984375	328.6916198730469	1235.45263671875	1088.786987304688	340.0081176757812	1161.88134765625	748.1971435546875	405.0318908691406	1216.088134765625	842.8805541992188	350.5427551269531	1200.3984375	847.41455078125	418.6005859375	791.4878540039062	1568.43798828125	284.8261108398438	729.9024047851562	1494.735473632812	260.5763244628906	705.9451293945312	1199.413330078125	257.5962524414062	802.6078491210938	1197.234497070312	264.0740356445312	688.324462890625	983.022216796875	436.9085083007812	670.2614135742188	952.2849731445312	361.6888427734375	684.830078125	1129.085693359375	287.7857055664062	698.7327270507812	797.2381591796875	497.9900207519531	675.0298461914062	881.4784545898438	484.5209655761719	656.9032592773438	860.490234375	414.1380004882812	897.1502685546875	1758.746337890625	279.09375	949.0656127929688	1821.663452148438	483.7483520507812	830.4826049804688	1808.264038085938	435.9790344238281	1023.834411621094	1778.255981445312	320.7466735839844	1128.421508789062	1029.329833984375	388.8792114257812	768.0640258789062	1008.365783691406	369.9586486816406	806.2045288085938	1087.496459960938	455.7254638671875	1069.922241210938	1096.002197265625	484.3484191894531	1098.400390625	558.0366821289062	594.0757446289062	1130.720703125	693.9844360351562	522.3502197265625	1215.977783203125	123.5117950439453	310.1347045898438	1182.6689453125	358.4345397949219	423.1896667480469	1172.497924804688	46.51399612426758	520.6874389648438	1133.43115234375	62.59638214111328	450.2064819335938	1243.904541015625	79.15902709960938	422.48095703125	1153.673828125	137.6138000488281	244.5847930908203	881.3533935546875	519.9696655273438	389.1954956054688	801.6990966796875	792.5781860351562	398.9641723632812	996.7799072265625	25.31739616394043	308.7914733886719	897.0555419921875	385.169921875	369.8493041992188	1021.712097167969	36.71811676025391	545.619140625	1069.261596679688	29.64247512817383	489.6150512695312	960.3610229492188	40.4315299987793	438.5068664550781	1051.430786132812	24.98499298095703	259.6431884765625	
558	5.57	900.4302368164062	1106.18798828125	264.7170715332031	1034.315063476562	1110.557006835938	284.0979614257812	969.3954467773438	1142.9794921875	266.1104736328125	936.8108520507812	1348.5537109375	480.1543579101562	970.7508544921875	1294.526611328125	229.8118896484375	979.0734252929688	1587.620239257812	259.7858276367188	946.6918334960938	1482.324584960938	442.13623046875	897.9805908203125	1401.983520507812	199.5800628662109	1079.692504882812	1567.510009765625	266.6171875	1137.65869140625	1555.88720703125	360.5351867675781	1210.685180664062	1424.841430664062	343.1921997070312	1229.677368164062	1205.159545898438	343.07470703125	1173.782348632812	1196.841430664062	275.4049377441406	1188.699584960938	938.566650390625	420.4764404296875	1216.047607421875	920.7435302734375	337.40380859375	1234.652954101562	1088.652221679688	349.40185546875	1160.332641601562	747.9842529296875	412.7848510742188	1215.180908203125	842.7625732421875	359.1107788085938	1198.714233398438	847.16845703125	427.0033874511719	791.3704833984375	1568.744873046875	290.8186645507812	730.0079956054688	1495.104858398438	265.8330688476562	705.6846313476562	1199.660400390625	263.0015869140625	802.3606567382812	1197.472778320312	270.2559509277344	686.5254516601562	984.9342651367188	444.2822570800781	668.8619384765625	953.471923828125	369.2024536132812	684.2811279296875	1129.496459960938	293.5858459472656	696.1536254882812	799.7543334960938	507.2263793945312	672.7620239257812	883.9221801757812	492.7990112304688	654.9890747070312	862.2333374023438	422.4814758300781	897.1320190429688	1758.93310546875	286.8174438476562	947.6300048828125	1821.557250976562	491.9037170410156	829.3814086914062	1808.3740234375	443.2533569335938	1023.519714355469	1778.140747070312	329.4161987304688	1127.436645507812	1029.990600585938	400.2037658691406	767.3317260742188	1007.710815429688	374.3602600097656	803.7074584960938	1087.237426757812	460.9375610351562	1066.932006835938	1096.485107421875	494.3099365234375	1092.143188476562	560.5184936523438	608.0936889648438	1126.71142578125	695.5975952148438	535.9222412109375	1214.245361328125	114.819694519043	344.432861328125	1179.814819335938	354.4735717773438	446.622802734375	1164.803955078125	48.14168167114258	557.1604614257812	1127.724731445312	60.76737594604492	484.942626953125	1238.997924804688	75.86796569824219	459.4383544921875	1153.881713867188	126.3768615722656	276.5220947265625	881.0867309570312	519.6936645507812	391.8504943847656	801.1249389648438	792.1526489257812	402.7035827636719	996.8131103515625	25.43182945251465	308.8706359863281	897.306884765625	384.8906860351562	371.8276977539062	1021.763488769531	36.48714828491211	545.8538208007812	1069.337890625	29.49944686889648	489.677490234375	960.3772583007812	40.35889053344727	438.6078796386719	1051.42333984375	25.2385082244873	259.672119140625	
559	5.58	901.6201171875	1106.119262695312	271.7728881835938	1035.267211914062	1111.00634765625	293.3712158203125	970.489501953125	1143.066162109375	274.1746826171875	934.0565185546875	1348.490478515625	487.7442932128906	971.1179809570312	1294.588256835938	238.3961639404297	979.229248046875	1587.637329101562	268.0296936035156	944.660888671875	1482.23583984375	449.9126892089844	898.830322265625	1402.189575195312	206.6346435546875	1079.75390625	1567.453857421875	276.0020141601562	1136.642333984375	1555.676635742188	370.5982971191406	1209.831176757812	1424.671997070312	353.6864929199219	1228.86865234375	1205.08203125	352.9932250976562	1173.653564453125	1196.9775390625	284.7290649414062	1187.1533203125	938.2658081054688	429.1713256835938	1215.3486328125	920.6569213867188	346.3265075683594	1233.782958984375	1088.451171875	359.0887145996094	1158.858276367188	747.6990356445312	420.6337585449219	1214.299682617188	842.6212768554688	367.8410949707031	1197.095947265625	846.8589477539062	435.5694580078125	791.1963500976562	1568.959350585938	296.8621826171875	730.0758666992188	1495.375854492188	271.1441955566406	705.4324340820312	1199.82080078125	268.3791198730469	802.140869140625	1197.65087890625	276.3514099121094	684.8058471679688	986.6624145507812	451.4778137207031	667.5086669921875	954.5287475585938	376.5217895507812	683.7560424804688	1129.807250976562	299.3170776367188	693.66552734375	802.0730590820312	516.1409912109375	670.5133056640625	886.156494140625	500.7977600097656	653.1255493164062	863.829345703125	430.566650390625	897.03466796875	1759.072021484375	294.552490234375	946.1259765625	1821.391235351562	500.0579833984375	828.2073364257812	1808.4423828125	450.5279235839844	1023.110900878906	1777.955078125	338.1260681152344	1126.410766601562	1030.569702148438	411.4484252929688	766.6488647460938	1006.969970703125	378.7468566894531	801.2316284179688	1086.892822265625	466.140625	1063.91064453125	1096.872924804688	504.2013854980469	1085.854858398438	562.7733154296875	621.5659790039062	1122.658935546875	697.0386352539062	549.103271484375	1211.2744140625	106.413330078125	378.8209228515625	1176.459106445312	350.4742736816406	469.985107421875	1155.35595703125	50.04791259765625	592.8812255859375	1120.411743164062	59.29917907714844	519.0552368164062	1232.5224609375	72.72799682617188	496.1140747070312	1153.015869140625	115.6327514648438	308.68603515625	880.7771606445312	519.4100952148438	394.5001831054688	800.5457153320312	791.708984375	406.4475402832031	996.8582153320312	25.52577209472656	308.9430541992188	897.5823364257812	384.5835876464844	373.8240356445312	1021.759521484375	36.2965202331543	546.0474243164062	1069.33740234375	29.2972583770752	489.6163024902344	960.375244140625	40.28091812133789	438.6977233886719	1051.433227539062	25.48280715942383	259.6966247558594	
560	5.59	902.747314453125	1105.997314453125	278.898681640625	1036.159790039062	1111.411376953125	302.6000366210938	971.5266723632812	1143.110473632812	282.2644653320312	931.2869262695312	1348.358520507812	495.3411865234375	971.3401489257812	1294.605346679688	247.0565032958984	979.2944946289062	1587.601928710938	276.31103515625	942.5764770507812	1482.08154296875	457.698486328125	899.6502685546875	1402.315795898438	213.7158203125	1079.725463867188	1567.357299804688	285.408935546875	1135.524047851562	1555.443237304688	380.6628112792969	1208.860717773438	1424.481689453125	364.2437438964844	1227.97216796875	1204.970825195312	363.13134765625	1173.430908203125	1197.043090820312	294.3008422851562	1185.623291015625	937.9036254882812	438.0791015625	1214.64990234375	920.5491943359375	355.4589233398438	1232.848999023438	1088.197509765625	369.0387573242188	1157.448120117188	747.3428955078125	428.6000366210938	1213.434936523438	842.4500122070312	376.7370300292969	1195.558715820312	846.4852905273438	444.3047180175781	790.9692993164062	1569.078002929688	302.9527587890625	730.1082153320312	1495.539184570312	276.5138854980469	705.186767578125	1199.885131835938	273.7493591308594	801.924560546875	1197.7412109375	282.4061279296875	683.1511840820312	988.1907958984375	458.4991455078125	666.2024536132812	955.439453125	383.6521301269531	683.2520141601562	1130.011108398438	304.9976501464844	691.2564697265625	804.1629028320312	524.7335815429688	668.2780151367188	888.1544799804688	508.5129089355469	651.3126220703125	865.2532958984375	438.3953552246094	896.8602905273438	1759.158935546875	302.3000793457031	944.5526733398438	1821.169189453125	508.2140502929688	826.959716796875	1808.471801757812	457.8056640625	1022.611083984375	1777.707153320312	346.8634338378906	1125.338256835938	1031.060668945312	422.6026611328125	766.0213623046875	1006.174072265625	383.1527099609375	798.788818359375	1086.472045898438	471.3570861816406	1060.865478515625	1097.162353515625	514.0138549804688	1079.598999023438	564.7910766601562	634.497314453125	1118.596557617188	698.2982788085938	561.8844604492188	1207.060302734375	98.37851715087891	413.1848754882812	1172.595947265625	346.4807739257812	493.2272644042969	1144.26171875	52.22400283813477	627.7239379882812	1111.593505859375	58.23365020751953	552.4431762695312	1224.529907226562	69.79586791992188	532.39990234375	1151.034423828125	105.4130172729492	340.9591674804688	880.4255981445312	519.1085205078125	397.1644592285156	799.9384155273438	791.255126953125	410.2096557617188	996.9110717773438	25.60697174072266	309.0033569335938	897.8607788085938	384.2612609863281	375.8338317871094	1021.693176269531	36.14025497436523	546.2049560546875	1069.279296875	29.07109642028809	489.4706420898438	960.3591918945312	40.19158935546875	438.7813415527344	1051.455444335938	25.71367835998535	259.7192077636719	
